<?xml version="1.0" encoding="UTF-8" standalone="no"?>
<!DOCTYPE svg PUBLIC "-//W3C//DTD SVG 1.1//EN"
 "http://www.w3.org/Graphics/SVG/1.1/DTD/svg11.dtd">
<!-- Generated by graphviz version 2.40.1 (20161225.0304)
 -->
<!-- Title: dependencies Pages: 1 -->
<svg width="917pt" height="284pt"
 viewBox="0.00 0.00 917.00 284.00" xmlns="http://www.w3.org/2000/svg" xmlns:xlink="http://www.w3.org/1999/xlink">
<g id="graph0" class="graph" transform="scale(1 1) rotate(0) translate(4 280)">
<title>dependencies</title>
<polygon fill="#ffffff" stroke="transparent" points="-4,4 -4,-280 913,-280 913,4 -4,4"/>
<text text-anchor="start" x="433.5091" y="-42.4" font-family="sans-serif" font-weight="bold" font-size="14.00" fill="#000000">Legend</text>
<polygon fill="#ffffb3" stroke="transparent" points="220.5,-10 220.5,-30 240.5,-30 240.5,-10 220.5,-10"/>
<text text-anchor="start" x="244.129" y="-15.4" font-family="sans-serif" font-size="14.00" fill="#000000"> &#160;Declarations</text>
<polygon fill="#8dd3c7" stroke="transparent" points="333.5,-10 333.5,-30 353.5,-30 353.5,-10 333.5,-10"/>
<text text-anchor="start" x="357.2251" y="-15.4" font-family="sans-serif" font-size="14.00" fill="#000000"> &#160;Module</text>
<polygon fill="#80b1d3" stroke="transparent" points="419.5,-10 419.5,-30 439.5,-30 439.5,-10 419.5,-10"/>
<text text-anchor="start" x="443.2812" y="-15.4" font-family="sans-serif" font-size="14.00" fill="#000000"> &#160;Bootstrap</text>
<polygon fill="#fdb462" stroke="transparent" points="516.5,-10 516.5,-30 536.5,-30 536.5,-10 516.5,-10"/>
<text text-anchor="start" x="540.1732" y="-15.4" font-family="sans-serif" font-size="14.00" fill="#000000"> &#160;Providers</text>
<polygon fill="#fb8072" stroke="transparent" points="612.5,-10 612.5,-30 632.5,-30 632.5,-10 612.5,-10"/>
<text text-anchor="start" x="636.2258" y="-15.4" font-family="sans-serif" font-size="14.00" fill="#000000"> &#160;Exports</text>
<g id="clust1" class="cluster">
<title>cluster_ResponsiveMenuModule</title>
<polygon fill="none" stroke="#000000" stroke-dasharray="1,5" points="8,-70 8,-268 901,-268 901,-70 8,-70"/>
</g>
<g id="clust2" class="cluster">
<title>cluster_ResponsiveMenuModule_declarations</title>
<polygon fill="none" stroke="#000000" points="196,-78 196,-130 893,-130 893,-78 196,-78"/>
</g>
<g id="clust8" class="cluster">
<title>cluster_ResponsiveMenuModule_exports</title>
<polygon fill="none" stroke="#000000" points="99,-208 99,-260 811,-260 811,-208 99,-208"/>
</g>
<g id="clust10" class="cluster">
<title>cluster_ResponsiveMenuModule_providers</title>
<polygon fill="none" stroke="#000000" points="16,-78 16,-130 188,-130 188,-78 16,-78"/>
</g>
<!-- MenuItemDirective -->
<g id="node1" class="node">
<title>MenuItemDirective</title>
<polygon fill="#ffffb3" stroke="#000000" points="885.399,-122 758.601,-122 758.601,-86 885.399,-86 885.399,-122"/>
<text text-anchor="middle" x="822" y="-99.8" font-family="Times,serif" font-size="14.00" fill="#000000">MenuItemDirective</text>
</g>
<!-- ResponsiveMenuModule -->
<g id="node5" class="node">
<title>ResponsiveMenuModule</title>
<polygon fill="#8dd3c7" stroke="#000000" points="561.2548,-187 558.2548,-191 537.2548,-191 534.2548,-187 404.7452,-187 404.7452,-151 561.2548,-151 561.2548,-187"/>
<text text-anchor="middle" x="483" y="-164.8" font-family="Times,serif" font-size="14.00" fill="#000000">ResponsiveMenuModule</text>
</g>
<!-- MenuItemDirective&#45;&gt;ResponsiveMenuModule -->
<g id="edge1" class="edge">
<title>MenuItemDirective&#45;&gt;ResponsiveMenuModule</title>
<path fill="none" stroke="#000000" d="M780.875,-122.1061C780.875,-141.3391 780.875,-169 780.875,-169 780.875,-169 571.2631,-169 571.2631,-169"/>
<polygon fill="#000000" stroke="#000000" points="571.2632,-165.5001 561.2631,-169 571.2631,-172.5001 571.2632,-165.5001"/>
</g>
<!-- MenuItemMoreDirective -->
<g id="node2" class="node">
<title>MenuItemMoreDirective</title>
<polygon fill="#ffffb3" stroke="#000000" points="740.2185,-122 583.7815,-122 583.7815,-86 740.2185,-86 740.2185,-122"/>
<text text-anchor="middle" x="662" y="-99.8" font-family="Times,serif" font-size="14.00" fill="#000000">MenuItemMoreDirective</text>
</g>
<!-- MenuItemMoreDirective&#45;&gt;ResponsiveMenuModule -->
<g id="edge2" class="edge">
<title>MenuItemMoreDirective&#45;&gt;ResponsiveMenuModule</title>
<path fill="none" stroke="#000000" d="M619.375,-122.027C619.375,-138.3976 619.375,-160 619.375,-160 619.375,-160 571.5397,-160 571.5397,-160"/>
<polygon fill="#000000" stroke="#000000" points="571.5398,-156.5001 561.5397,-160 571.5397,-163.5001 571.5398,-156.5001"/>
</g>
<!-- OverflowContentDirective -->
<g id="node3" class="node">
<title>OverflowContentDirective</title>
<polygon fill="#ffffb3" stroke="#000000" points="566.0548,-122 399.9452,-122 399.9452,-86 566.0548,-86 566.0548,-122"/>
<text text-anchor="middle" x="483" y="-99.8" font-family="Times,serif" font-size="14.00" fill="#000000">OverflowContentDirective</text>
</g>
<!-- OverflowContentDirective&#45;&gt;ResponsiveMenuModule -->
<g id="edge3" class="edge">
<title>OverflowContentDirective&#45;&gt;ResponsiveMenuModule</title>
<path fill="none" stroke="#000000" d="M483,-122.1061C483,-122.1061 483,-140.991 483,-140.991"/>
<polygon fill="#000000" stroke="#000000" points="479.5001,-140.9909 483,-150.991 486.5001,-140.991 479.5001,-140.9909"/>
</g>
<!-- ResponsiveMenuComponent -->
<g id="node4" class="node">
<title>ResponsiveMenuComponent</title>
<polygon fill="#ffffb3" stroke="#000000" points="382.0378,-122 203.9622,-122 203.9622,-86 382.0378,-86 382.0378,-122"/>
<text text-anchor="middle" x="293" y="-99.8" font-family="Times,serif" font-size="14.00" fill="#000000">ResponsiveMenuComponent</text>
</g>
<!-- ResponsiveMenuComponent&#45;&gt;ResponsiveMenuModule -->
<g id="edge4" class="edge">
<title>ResponsiveMenuComponent&#45;&gt;ResponsiveMenuModule</title>
<path fill="none" stroke="#000000" d="M344.7456,-122.027C344.7456,-138.3976 344.7456,-160 344.7456,-160 344.7456,-160 394.5819,-160 394.5819,-160"/>
<polygon fill="#000000" stroke="#000000" points="394.5819,-163.5001 404.5819,-160 394.5819,-156.5001 394.5819,-163.5001"/>
</g>
<!-- MenuItemDirective  -->
<g id="node6" class="node">
<title>MenuItemDirective </title>
<polygon fill="#fb8072" stroke="#000000" points="802.8984,-252 673.1016,-252 673.1016,-216 802.8984,-216 802.8984,-252"/>
<text text-anchor="middle" x="738" y="-229.8" font-family="Times,serif" font-size="14.00" fill="#000000">MenuItemDirective </text>
</g>
<!-- ResponsiveMenuModule&#45;&gt;MenuItemDirective  -->
<g id="edge5" class="edge">
<title>ResponsiveMenuModule&#45;&gt;MenuItemDirective </title>
<path fill="none" stroke="#000000" stroke-dasharray="5,2" d="M561.5554,-178C626.0138,-178 706.705,-178 706.705,-178 706.705,-178 706.705,-205.973 706.705,-205.973"/>
<polygon fill="#000000" stroke="#000000" points="703.205,-205.973 706.705,-215.973 710.205,-205.973 703.205,-205.973"/>
</g>
<!-- MenuItemMoreDirective  -->
<g id="node7" class="node">
<title>MenuItemMoreDirective </title>
<polygon fill="#fb8072" stroke="#000000" points="655.2183,-252 494.7817,-252 494.7817,-216 655.2183,-216 655.2183,-252"/>
<text text-anchor="middle" x="575" y="-229.8" font-family="Times,serif" font-size="14.00" fill="#000000">MenuItemMoreDirective </text>
</g>
<!-- ResponsiveMenuModule&#45;&gt;MenuItemMoreDirective  -->
<g id="edge6" class="edge">
<title>ResponsiveMenuModule&#45;&gt;MenuItemMoreDirective </title>
<path fill="none" stroke="#000000" stroke-dasharray="5,2" d="M528.1341,-187.1061C528.1341,-187.1061 528.1341,-205.991 528.1341,-205.991"/>
<polygon fill="#000000" stroke="#000000" points="524.6342,-205.9909 528.1341,-215.991 531.6342,-205.991 524.6342,-205.9909"/>
</g>
<!-- OverflowContentDirective  -->
<g id="node8" class="node">
<title>OverflowContentDirective </title>
<polygon fill="#fb8072" stroke="#000000" points="476.5554,-252 307.4446,-252 307.4446,-216 476.5554,-216 476.5554,-252"/>
<text text-anchor="middle" x="392" y="-229.8" font-family="Times,serif" font-size="14.00" fill="#000000">OverflowContentDirective </text>
</g>
<!-- ResponsiveMenuModule&#45;&gt;OverflowContentDirective  -->
<g id="edge7" class="edge">
<title>ResponsiveMenuModule&#45;&gt;OverflowContentDirective </title>
<path fill="none" stroke="#000000" stroke-dasharray="5,2" d="M440.7001,-187.1061C440.7001,-187.1061 440.7001,-205.991 440.7001,-205.991"/>
<polygon fill="#000000" stroke="#000000" points="437.2001,-205.9909 440.7001,-215.991 444.2001,-205.991 437.2001,-205.9909"/>
</g>
<!-- ResponsiveMenuComponent  -->
<g id="node9" class="node">
<title>ResponsiveMenuComponent </title>
<polygon fill="#fb8072" stroke="#000000" points="289.0372,-252 106.9628,-252 106.9628,-216 289.0372,-216 289.0372,-252"/>
<text text-anchor="middle" x="198" y="-229.8" font-family="Times,serif" font-size="14.00" fill="#000000">ResponsiveMenuComponent </text>
</g>
<!-- ResponsiveMenuModule&#45;&gt;ResponsiveMenuComponent  -->
<g id="edge8" class="edge">
<title>ResponsiveMenuModule&#45;&gt;ResponsiveMenuComponent </title>
<path fill="none" stroke="#000000" stroke-dasharray="5,2" d="M404.536,-178C335.6566,-178 246.375,-178 246.375,-178 246.375,-178 246.375,-205.973 246.375,-205.973"/>
<polygon fill="#000000" stroke="#000000" points="242.8751,-205.973 246.375,-215.973 249.8751,-205.973 242.8751,-205.973"/>
</g>
<!-- OverflowControl -->
<g id="node10" class="node">
<title>OverflowControl</title>
<ellipse fill="#fdb462" stroke="#000000" cx="102" cy="-104" rx="77.5878" ry="18"/>
<text text-anchor="middle" x="102" y="-99.8" font-family="Times,serif" font-size="14.00" fill="#000000">OverflowControl</text>
</g>
<!-- OverflowControl&#45;&gt;ResponsiveMenuModule -->
<g id="edge9" class="edge">
<title>OverflowControl&#45;&gt;ResponsiveMenuModule</title>
<path fill="none" stroke="#000000" d="M143.2626,-119.4041C143.2626,-138.6255 143.2626,-169 143.2626,-169 143.2626,-169 394.6308,-169 394.6308,-169"/>
<polygon fill="#000000" stroke="#000000" points="394.6308,-172.5001 404.6308,-169 394.6308,-165.5001 394.6308,-172.5001"/>
</g>
</g>
</svg>
