<?xml version="1.0" encoding="UTF-8" standalone="no"?>
<!DOCTYPE svg PUBLIC "-//W3C//DTD SVG 1.1//EN"
 "http://www.w3.org/Graphics/SVG/1.1/DTD/svg11.dtd">
<!-- Generated by graphviz version 2.40.1 (20161225.0304)
 -->
<!-- Title: dependencies Pages: 1 -->
<svg width="900pt" height="284pt"
 viewBox="0.00 0.00 900.00 284.00" xmlns="http://www.w3.org/2000/svg" xmlns:xlink="http://www.w3.org/1999/xlink">
<g id="graph0" class="graph" transform="scale(1 1) rotate(0) translate(4 280)">
<title>dependencies</title>
<polygon fill="#ffffff" stroke="transparent" points="-4,4 -4,-280 896,-280 896,4 -4,4"/>
<text text-anchor="start" x="425.0091" y="-42.4" font-family="sans-serif" font-weight="bold" font-size="14.00" fill="#000000">Legend</text>
<polygon fill="#ffffb3" stroke="transparent" points="212,-10 212,-30 232,-30 232,-10 212,-10"/>
<text text-anchor="start" x="235.629" y="-15.4" font-family="sans-serif" font-size="14.00" fill="#000000"> &#160;Declarations</text>
<polygon fill="#8dd3c7" stroke="transparent" points="325,-10 325,-30 345,-30 345,-10 325,-10"/>
<text text-anchor="start" x="348.7251" y="-15.4" font-family="sans-serif" font-size="14.00" fill="#000000"> &#160;Module</text>
<polygon fill="#80b1d3" stroke="transparent" points="411,-10 411,-30 431,-30 431,-10 411,-10"/>
<text text-anchor="start" x="434.7812" y="-15.4" font-family="sans-serif" font-size="14.00" fill="#000000"> &#160;Bootstrap</text>
<polygon fill="#fdb462" stroke="transparent" points="508,-10 508,-30 528,-30 528,-10 508,-10"/>
<text text-anchor="start" x="531.6732" y="-15.4" font-family="sans-serif" font-size="14.00" fill="#000000"> &#160;Providers</text>
<polygon fill="#fb8072" stroke="transparent" points="604,-10 604,-30 624,-30 624,-10 604,-10"/>
<text text-anchor="start" x="627.7258" y="-15.4" font-family="sans-serif" font-size="14.00" fill="#000000"> &#160;Exports</text>
<g id="clust1" class="cluster">
<title>cluster_ResponsiveMenuModule</title>
<polygon fill="none" stroke="#000000" stroke-dasharray="1,5" points="8,-70 8,-268 884,-268 884,-70 8,-70"/>
</g>
<g id="clust2" class="cluster">
<title>cluster_ResponsiveMenuModule_declarations</title>
<polygon fill="none" stroke="#000000" points="196,-78 196,-130 876,-130 876,-78 196,-78"/>
</g>
<g id="clust8" class="cluster">
<title>cluster_ResponsiveMenuModule_exports</title>
<polygon fill="none" stroke="#000000" points="98,-208 98,-260 794,-260 794,-208 98,-208"/>
</g>
<g id="clust10" class="cluster">
<title>cluster_ResponsiveMenuModule_providers</title>
<polygon fill="none" stroke="#000000" points="16,-78 16,-130 188,-130 188,-78 16,-78"/>
</g>
<!-- MenuItemDirective -->
<g id="node1" class="node">
<title>MenuItemDirective</title>
<polygon fill="#ffffb3" stroke="#000000" points="868.399,-122 741.601,-122 741.601,-86 868.399,-86 868.399,-122"/>
<text text-anchor="middle" x="805" y="-99.8" font-family="Times,serif" font-size="14.00" fill="#000000">MenuItemDirective</text>
</g>
<!-- ResponsiveMenuModule -->
<g id="node5" class="node">
<title>ResponsiveMenuModule</title>
<polygon fill="#8dd3c7" stroke="#000000" points="561.2548,-187 558.2548,-191 537.2548,-191 534.2548,-187 404.7452,-187 404.7452,-151 561.2548,-151 561.2548,-187"/>
<text text-anchor="middle" x="483" y="-164.8" font-family="Times,serif" font-size="14.00" fill="#000000">ResponsiveMenuModule</text>
</g>
<!-- MenuItemDirective&#45;&gt;ResponsiveMenuModule -->
<g id="edge1" class="edge">
<title>MenuItemDirective&#45;&gt;ResponsiveMenuModule</title>
<path fill="none" stroke="#000000" d="M763.875,-122.1061C763.875,-141.3391 763.875,-169 763.875,-169 763.875,-169 571.6128,-169 571.6128,-169"/>
<polygon fill="#000000" stroke="#000000" points="571.6129,-165.5001 561.6128,-169 571.6128,-172.5001 571.6129,-165.5001"/>
</g>
<!-- MenuToggleDirective -->
<g id="node2" class="node">
<title>MenuToggleDirective</title>
<polygon fill="#ffffb3" stroke="#000000" points="724.4004,-122 583.5996,-122 583.5996,-86 724.4004,-86 724.4004,-122"/>
<text text-anchor="middle" x="654" y="-99.8" font-family="Times,serif" font-size="14.00" fill="#000000">MenuToggleDirective</text>
</g>
<!-- MenuToggleDirective&#45;&gt;ResponsiveMenuModule -->
<g id="edge2" class="edge">
<title>MenuToggleDirective&#45;&gt;ResponsiveMenuModule</title>
<path fill="none" stroke="#000000" d="M610.875,-122.027C610.875,-138.3976 610.875,-160 610.875,-160 610.875,-160 571.4352,-160 571.4352,-160"/>
<polygon fill="#000000" stroke="#000000" points="571.4352,-156.5001 561.4352,-160 571.4352,-163.5001 571.4352,-156.5001"/>
</g>
<!-- OverflowContentDirective -->
<g id="node3" class="node">
<title>OverflowContentDirective</title>
<polygon fill="#ffffb3" stroke="#000000" points="566.0548,-122 399.9452,-122 399.9452,-86 566.0548,-86 566.0548,-122"/>
<text text-anchor="middle" x="483" y="-99.8" font-family="Times,serif" font-size="14.00" fill="#000000">OverflowContentDirective</text>
</g>
<!-- OverflowContentDirective&#45;&gt;ResponsiveMenuModule -->
<g id="edge3" class="edge">
<title>OverflowContentDirective&#45;&gt;ResponsiveMenuModule</title>
<path fill="none" stroke="#000000" d="M483,-122.1061C483,-122.1061 483,-140.991 483,-140.991"/>
<polygon fill="#000000" stroke="#000000" points="479.5001,-140.9909 483,-150.991 486.5001,-140.991 479.5001,-140.9909"/>
</g>
<!-- ResponsiveMenuComponent -->
<g id="node4" class="node">
<title>ResponsiveMenuComponent</title>
<polygon fill="#ffffb3" stroke="#000000" points="382.0378,-122 203.9622,-122 203.9622,-86 382.0378,-86 382.0378,-122"/>
<text text-anchor="middle" x="293" y="-99.8" font-family="Times,serif" font-size="14.00" fill="#000000">ResponsiveMenuComponent</text>
</g>
<!-- ResponsiveMenuComponent&#45;&gt;ResponsiveMenuModule -->
<g id="edge4" class="edge">
<title>ResponsiveMenuComponent&#45;&gt;ResponsiveMenuModule</title>
<path fill="none" stroke="#000000" d="M344.2456,-122.027C344.2456,-138.3976 344.2456,-160 344.2456,-160 344.2456,-160 394.7017,-160 394.7017,-160"/>
<polygon fill="#000000" stroke="#000000" points="394.7017,-163.5001 404.7017,-160 394.7016,-156.5001 394.7017,-163.5001"/>
</g>
<!-- MenuItemDirective  -->
<g id="node6" class="node">
<title>MenuItemDirective </title>
<polygon fill="#fb8072" stroke="#000000" points="785.8984,-252 656.1016,-252 656.1016,-216 785.8984,-216 785.8984,-252"/>
<text text-anchor="middle" x="721" y="-229.8" font-family="Times,serif" font-size="14.00" fill="#000000">MenuItemDirective </text>
</g>
<!-- ResponsiveMenuModule&#45;&gt;MenuItemDirective  -->
<g id="edge5" class="edge">
<title>ResponsiveMenuModule&#45;&gt;MenuItemDirective </title>
<path fill="none" stroke="#000000" stroke-dasharray="5,2" d="M561.3052,-178C619.9595,-178 690.1254,-178 690.1254,-178 690.1254,-178 690.1254,-205.973 690.1254,-205.973"/>
<polygon fill="#000000" stroke="#000000" points="686.6254,-205.973 690.1254,-215.973 693.6254,-205.973 686.6254,-205.973"/>
</g>
<!-- MenuToggleDirective  -->
<g id="node7" class="node">
<title>MenuToggleDirective </title>
<polygon fill="#fb8072" stroke="#000000" points="637.8998,-252 494.1002,-252 494.1002,-216 637.8998,-216 637.8998,-252"/>
<text text-anchor="middle" x="566" y="-229.8" font-family="Times,serif" font-size="14.00" fill="#000000">MenuToggleDirective </text>
</g>
<!-- ResponsiveMenuModule&#45;&gt;MenuToggleDirective  -->
<g id="edge6" class="edge">
<title>ResponsiveMenuModule&#45;&gt;MenuToggleDirective </title>
<path fill="none" stroke="#000000" stroke-dasharray="5,2" d="M527.7137,-187.1061C527.7137,-187.1061 527.7137,-205.991 527.7137,-205.991"/>
<polygon fill="#000000" stroke="#000000" points="524.2138,-205.9909 527.7137,-215.991 531.2138,-205.991 524.2138,-205.9909"/>
</g>
<!-- OverflowContentDirective  -->
<g id="node8" class="node">
<title>OverflowContentDirective </title>
<polygon fill="#fb8072" stroke="#000000" points="475.5554,-252 306.4446,-252 306.4446,-216 475.5554,-216 475.5554,-252"/>
<text text-anchor="middle" x="391" y="-229.8" font-family="Times,serif" font-size="14.00" fill="#000000">OverflowContentDirective </text>
</g>
<!-- ResponsiveMenuModule&#45;&gt;OverflowContentDirective  -->
<g id="edge7" class="edge">
<title>ResponsiveMenuModule&#45;&gt;OverflowContentDirective </title>
<path fill="none" stroke="#000000" stroke-dasharray="5,2" d="M440.2001,-187.1061C440.2001,-187.1061 440.2001,-205.991 440.2001,-205.991"/>
<polygon fill="#000000" stroke="#000000" points="436.7001,-205.9909 440.2001,-215.991 443.7001,-205.991 436.7001,-205.9909"/>
</g>
<!-- ResponsiveMenuComponent  -->
<g id="node9" class="node">
<title>ResponsiveMenuComponent </title>
<polygon fill="#fb8072" stroke="#000000" points="288.0372,-252 105.9628,-252 105.9628,-216 288.0372,-216 288.0372,-252"/>
<text text-anchor="middle" x="197" y="-229.8" font-family="Times,serif" font-size="14.00" fill="#000000">ResponsiveMenuComponent </text>
</g>
<!-- ResponsiveMenuModule&#45;&gt;ResponsiveMenuComponent  -->
<g id="edge8" class="edge">
<title>ResponsiveMenuModule&#45;&gt;ResponsiveMenuComponent </title>
<path fill="none" stroke="#000000" stroke-dasharray="5,2" d="M404.6992,-178C335.63,-178 245.875,-178 245.875,-178 245.875,-178 245.875,-205.973 245.875,-205.973"/>
<polygon fill="#000000" stroke="#000000" points="242.3751,-205.973 245.875,-215.973 249.3751,-205.973 242.3751,-205.973"/>
</g>
<!-- OverflowControl -->
<g id="node10" class="node">
<title>OverflowControl</title>
<ellipse fill="#fdb462" stroke="#000000" cx="102" cy="-104" rx="77.5878" ry="18"/>
<text text-anchor="middle" x="102" y="-99.8" font-family="Times,serif" font-size="14.00" fill="#000000">OverflowControl</text>
</g>
<!-- OverflowControl&#45;&gt;ResponsiveMenuModule -->
<g id="edge9" class="edge">
<title>OverflowControl&#45;&gt;ResponsiveMenuModule</title>
<path fill="none" stroke="#000000" d="M142.7626,-119.4041C142.7626,-138.6255 142.7626,-169 142.7626,-169 142.7626,-169 394.5155,-169 394.5155,-169"/>
<polygon fill="#000000" stroke="#000000" points="394.5155,-172.5001 404.5155,-169 394.5154,-165.5001 394.5155,-172.5001"/>
</g>
</g>
</svg>
